<svg width="216" height="159" viewBox="0 0 216 159" fill="none" xmlns="http://www.w3.org/2000/svg">
<g clip-path="url(#clip0_810_3360)">
<path d="M97.5248 135.251C97.5248 135.251 16.1041 134.089 6.27781 107.961C-3.5485 81.8332 46.7643 93.8746 39.1671 77.692C31.57 61.5094 32.2511 42.348 50.4986 41.7687C68.7461 41.1895 78.5772 41.7687 84.1881 23.1865C89.7991 4.6043 132.619 2.86666 140.34 19.1241C148.061 35.3816 162.803 51.6391 185.261 48.1559C207.72 44.6727 211.935 76.0253 199.303 88.2203C186.671 100.415 209.144 102.724 211.935 116.09C214.726 129.455 127.004 141.638 97.5248 135.251Z" fill="#E8BF9C"/>
<path d="M117.974 112.295C117.974 112.295 101.295 73.1835 123.007 63.8381C144.719 54.4927 132.977 85.5503 143.094 88.4287C153.211 91.3072 141.15 61.4934 159.192 55.3791C177.235 49.2648 159.321 84.8783 170.001 85.231C180.681 85.5836 193.657 53.2441 210.161 60.3497C226.664 67.4552 201.492 89.4438 191.036 97.8694C180.58 106.295 205.705 106.924 204.142 119.505C202.579 132.087 167.651 116.046 165.945 122.994C164.239 129.942 191.098 124.857 185.794 138.172C180.49 151.487 127.477 164.774 117.974 112.295Z" fill="#618765"/>
<path d="M108.129 124.762C149.866 108.821 205.824 68.0938 206.377 67.6887C206.414 67.6601 206.457 67.6395 206.503 67.6278C206.549 67.6162 206.596 67.6139 206.643 67.621C206.69 67.6281 206.735 67.6445 206.775 67.6692C206.815 67.6939 206.85 67.7265 206.877 67.7649C206.905 67.8028 206.925 67.8457 206.937 67.8914C206.948 67.937 206.95 67.9845 206.943 68.031C206.936 68.0774 206.92 68.1221 206.895 68.1623C206.871 68.2025 206.839 68.2375 206.801 68.2653C206.239 68.6752 150.214 109.455 108.386 125.453C108.294 125.487 108.193 125.483 108.104 125.443C108.015 125.402 107.946 125.328 107.912 125.236C107.878 125.144 107.881 125.043 107.922 124.954C107.963 124.865 108.037 124.796 108.129 124.762Z" fill="#83A687"/>
<path d="M194.968 116.956C194.844 116.956 196.598 117.771 157.963 99.3514C157.899 99.3214 157.846 99.2733 157.809 99.2131C157.773 99.1529 157.755 99.0833 157.758 99.013L159.593 60.3638C159.6 60.2707 159.642 60.1838 159.711 60.121C159.781 60.0581 159.871 60.0239 159.964 60.0254C160.011 60.0273 160.057 60.0384 160.1 60.058C160.143 60.0777 160.181 60.1056 160.213 60.1401C160.245 60.1747 160.27 60.2151 160.286 60.2592C160.302 60.3033 160.309 60.3502 160.307 60.3972L158.482 98.8081L195.12 116.279C195.192 116.315 195.249 116.373 195.283 116.445C195.317 116.518 195.326 116.599 195.309 116.677C195.291 116.755 195.248 116.824 195.186 116.875C195.125 116.925 195.048 116.954 194.968 116.956Z" fill="#83A687"/>
<path d="M173.208 135.403C152.149 135.403 128.754 116.574 128.516 116.374C128.278 116.174 128.63 119.577 124.961 68.1986C124.962 68.1093 124.997 68.0238 125.058 67.9588C125.12 67.8939 125.203 67.8542 125.292 67.8477C125.381 67.8411 125.469 67.8681 125.539 67.9233C125.61 67.9786 125.656 68.0581 125.671 68.1462L129.083 115.917C130.989 117.418 154.565 135.761 175.019 134.641C175.114 134.635 175.207 134.667 175.278 134.73C175.349 134.793 175.392 134.882 175.398 134.977C175.404 135.072 175.371 135.165 175.308 135.236C175.245 135.307 175.157 135.35 175.062 135.356C174.447 135.389 173.828 135.403 173.208 135.403Z" fill="#83A687"/>
<path d="M70.5279 98.4365C70.5279 98.4365 107.733 79.5598 97.2916 58.8437C86.8502 38.1275 76.1132 68.8515 66.6916 64.6577C57.2699 60.464 85.1393 45.6381 75.4269 29.6733C65.7146 13.7084 56.7362 51.7572 48.4869 45.2902C40.2376 38.8233 50.8697 6.33602 33.9898 1.27492C17.11 -3.78617 22.1663 28.6058 24.7064 41.5302C27.2465 54.4545 7.9886 39.0806 1.22141 49.5078C-5.54578 59.935 30.8255 69.9142 27.7278 76.1953C24.6302 82.4764 7.64547 61.7412 3.24203 75.0945C-1.1614 88.4477 30.3203 131.886 70.5279 98.4365Z" fill="#618765"/>
<path d="M69.7606 114.539C69.6963 114.54 69.6332 114.522 69.5778 114.49C69.5225 114.457 69.477 114.41 69.4461 114.354C48.0818 75.976 31.6833 9.98638 31.5213 9.34302C31.4985 9.25075 31.5133 9.15323 31.5625 9.0719C31.6116 8.99057 31.6911 8.9321 31.7834 8.90935C31.8756 8.8866 31.9732 8.90143 32.0545 8.95058C32.1358 8.99974 32.1943 9.07919 32.217 9.17146C32.3791 9.83388 48.7538 75.7139 70.0704 114.015C70.0989 114.069 70.1131 114.13 70.1116 114.191C70.1102 114.252 70.0931 114.311 70.062 114.364C70.031 114.416 69.9869 114.46 69.9342 114.491C69.8814 114.522 69.8217 114.538 69.7606 114.539Z" fill="#83A687"/>
<path d="M48.7204 63.5139C48.6489 63.5139 50.4265 63.9905 9.85672 53.4728C9.76521 53.4492 9.68676 53.3903 9.63853 53.309C9.59031 53.2278 9.57623 53.1307 9.59938 53.0391C9.62402 52.9472 9.68382 52.8687 9.76586 52.8206C9.84789 52.7724 9.94558 52.7585 10.0378 52.7817L48.5822 62.7514L71.4238 32.728C71.4513 32.6881 71.4866 32.6541 71.5275 32.6282C71.5685 32.6023 71.6143 32.5851 71.6622 32.5774C71.71 32.5698 71.759 32.572 71.806 32.5839C71.8529 32.5958 71.897 32.6171 71.9355 32.6465C71.974 32.6759 72.0061 32.7129 72.0299 32.7551C72.0537 32.7974 72.0686 32.844 72.0738 32.8922C72.079 32.9404 72.0743 32.9891 72.06 33.0354C72.0458 33.0818 72.0223 33.1247 71.9909 33.1617C47.3813 65.506 48.9968 63.5139 48.7204 63.5139Z" fill="#83A687"/>
<path d="M60.0388 94.8623C57.0078 94.8623 49.3447 94.1808 42.4059 92.8083C33.4752 91.0355 21.1322 87.3374 13.0592 79.7791C12.9923 79.7121 12.9547 79.6212 12.9547 79.5265C12.9547 79.4318 12.9923 79.341 13.0592 79.2739C13.1262 79.207 13.2171 79.1694 13.3118 79.1694C13.4065 79.1694 13.4974 79.207 13.5644 79.2739C17.9488 83.3771 26.5364 88.9434 42.5489 92.1173C48.2651 93.2538 54.0624 93.9358 59.8863 94.157L92.5641 60.4116C92.6311 60.3628 92.7129 60.3388 92.7956 60.3436C92.8783 60.3485 92.9567 60.3819 93.0175 60.4382C93.0783 60.4945 93.1176 60.5701 93.1288 60.6522C93.14 60.7343 93.1223 60.8177 93.0788 60.8882C57.8561 97.2737 60.2627 94.8623 60.0388 94.8623Z" fill="#83A687"/>
<path d="M174.088 8.55018L24.1175 52.7743C23.1708 53.0535 22.6297 54.0472 22.9088 54.9939L49.4091 144.86C49.6882 145.807 50.682 146.348 51.6287 146.069L201.599 101.845C202.546 101.566 203.087 100.572 202.808 99.6252L176.308 9.75884C176.029 8.81215 175.035 8.27101 174.088 8.55018Z" fill="#593A28"/>
<path d="M31.221 55.46L57.6702 137.672C57.7636 137.959 57.9647 138.199 58.2313 138.341C58.4979 138.484 58.8093 138.517 59.0999 138.434C66.7249 136.242 112.07 123.156 123.765 119.734L195.892 99.4801C196.188 99.3956 196.438 99.1982 196.589 98.9306C196.739 98.6629 196.779 98.3467 196.698 98.0504L172.393 13.003C172.31 12.7068 172.113 12.4556 171.845 12.3039C171.577 12.1521 171.26 12.1123 170.963 12.1929C163.491 14.2087 120.338 26.0132 104.574 34.2625C104.135 34.496 54.1866 44.2703 31.8501 54.0351C31.5875 54.1527 31.3779 54.3635 31.2617 54.6266C31.1455 54.8898 31.131 55.1867 31.221 55.46Z" fill="#EF993D"/>
<path d="M33.275 54.2164L57.4415 129.337C57.5251 129.602 57.709 129.823 57.954 129.954C58.1989 130.085 58.4854 130.115 58.752 130.037C65.7051 128.031 107.147 116.079 117.846 112.953L183.74 94.443C183.876 94.4056 184.003 94.3417 184.113 94.2549C184.224 94.1681 184.317 94.0602 184.385 93.9374C184.454 93.8146 184.498 93.6793 184.514 93.5395C184.53 93.3997 184.518 93.2581 184.479 93.1229L162.28 15.4432C162.204 15.1731 162.024 14.9441 161.779 14.8058C161.535 14.6676 161.246 14.6312 160.975 14.7046C154.146 16.5441 114.72 27.3382 100.318 34.8679C99.9175 35.0776 54.2819 43.9941 33.8755 52.9344C33.6361 53.0379 33.4428 53.2254 33.3322 53.4615C33.2216 53.6977 33.2012 53.9662 33.275 54.2164Z" fill="#FFF3E7"/>
<path d="M60.3438 123.852L38.9461 55.8175C38.8821 55.6141 38.8881 55.3951 38.9633 55.1955C39.0385 54.9959 39.1784 54.8273 39.3607 54.7166C61.559 41.3157 94.885 39.0663 95.2186 39.0473C95.4258 39.0361 95.6311 39.0929 95.8031 39.209C95.9751 39.3251 96.1046 39.4942 96.1717 39.6906L119.275 108.125C119.318 108.252 119.333 108.386 119.321 108.52C119.308 108.653 119.267 108.782 119.201 108.899C119.135 109.015 119.045 109.116 118.937 109.196C118.829 109.275 118.706 109.331 118.575 109.359C92.0495 115.164 61.864 124.361 61.5447 124.457C61.3052 124.535 61.0443 124.516 60.8193 124.402C60.5942 124.289 60.4232 124.091 60.3438 123.852ZM40.9905 55.9652L61.8926 122.369C67.0585 120.816 93.3743 112.991 117.126 107.734L94.6134 41.0155C89.6905 41.4063 60.9585 44.218 40.9905 55.9652Z" fill="#593A28"/>
<path d="M124.203 106.219L101.948 38.6184C101.878 38.4085 101.884 38.1811 101.964 37.975C102.044 37.769 102.193 37.5972 102.386 37.4889C118.86 28.1789 136.903 21.9729 155.618 19.1794C155.845 19.1456 156.076 19.1944 156.269 19.3169C156.462 19.4394 156.605 19.6274 156.671 19.8466L178.055 90.1062C178.093 90.2327 178.105 90.3658 178.089 90.4971C178.074 90.6283 178.031 90.7549 177.964 90.8688C177.896 90.9826 177.806 91.0812 177.699 91.1583C177.591 91.2354 177.469 91.2894 177.34 91.3167C155.418 95.8679 125.704 106.705 125.395 106.814C125.157 106.89 124.9 106.871 124.677 106.759C124.455 106.648 124.285 106.454 124.203 106.219ZM103.987 38.7661L125.69 104.689C130.818 102.845 156.19 93.8853 175.939 89.663L155.07 21.1905C137.132 23.963 119.834 29.9149 103.987 38.7661Z" fill="#593A28"/>
<path d="M124.985 113.367C124.783 113.367 124.587 113.302 124.424 113.183C124.261 113.064 124.141 112.897 124.079 112.705L99.1216 35.2349C99.0439 34.9941 99.065 34.7323 99.1803 34.5071C99.2956 34.2819 99.4956 34.1117 99.7364 34.0339C99.9772 33.9562 100.239 33.9773 100.464 34.0926C100.689 34.2079 100.86 34.4079 100.937 34.6487L125.89 112.133C125.934 112.275 125.944 112.426 125.919 112.572C125.895 112.719 125.836 112.858 125.748 112.978C125.66 113.098 125.545 113.196 125.413 113.263C125.28 113.331 125.133 113.366 124.985 113.367Z" fill="#EF993D"/>
<path d="M45.9134 62.0558C45.8087 62.0545 45.7074 62.0187 45.6251 61.9539C45.5427 61.8892 45.484 61.7992 45.458 61.6978C45.432 61.5963 45.44 61.4892 45.481 61.3928C45.522 61.2964 45.5936 61.2163 45.6847 61.1646C45.9039 61.0455 67.8782 49.06 91.0582 48.6882C91.1846 48.6882 91.3058 48.7384 91.3952 48.8278C91.4846 48.9172 91.5348 49.0384 91.5348 49.1648C91.5348 49.2912 91.4846 49.4124 91.3952 49.5018C91.3058 49.5911 91.1846 49.6414 91.0582 49.6414C68.1212 50.0131 46.3471 61.8795 46.1279 61.9986C46.0619 62.0343 45.9884 62.0539 45.9134 62.0558Z" fill="#EF993D"/>
<path d="M49.3018 70.3335C49.1984 70.3328 49.0981 70.2985 49.0159 70.2358C48.9338 70.1731 48.8742 70.0854 48.8462 69.9859C48.8183 69.8864 48.8234 69.7805 48.8609 69.6842C48.8983 69.5878 48.9661 69.5063 49.054 69.4519C49.2732 69.3184 71.2475 56.2225 92.2353 58.0954C92.2979 58.101 92.3588 58.1189 92.4144 58.1481C92.4701 58.1772 92.5195 58.217 92.5597 58.2653C92.6 58.3135 92.6304 58.3692 92.6491 58.4292C92.6679 58.4892 92.6746 58.5522 92.669 58.6148C92.6634 58.6774 92.6454 58.7383 92.6163 58.7939C92.5871 58.8496 92.5473 58.899 92.4991 58.9392C92.4508 58.9795 92.3951 59.0099 92.3352 59.0286C92.2752 59.0474 92.2121 59.0541 92.1495 59.0485C71.481 57.2042 49.7641 70.1429 49.5448 70.2716C49.4708 70.3135 49.3869 70.3349 49.3018 70.3335Z" fill="#EF993D"/>
<path d="M52.7807 76.1667C52.6769 76.167 52.5759 76.1335 52.4929 76.0711C52.41 76.0088 52.3496 75.9211 52.321 75.8214C52.2925 75.7216 52.2972 75.6152 52.3346 75.5184C52.372 75.4216 52.4399 75.3397 52.5281 75.285C52.6854 75.1897 68.4358 65.6156 92.2734 65.0532C92.3998 65.0532 92.5211 65.1034 92.6104 65.1928C92.6998 65.2822 92.75 65.4034 92.75 65.5298C92.75 65.6562 92.6998 65.7774 92.6104 65.8668C92.5211 65.9561 92.3998 66.0063 92.2734 66.0063C68.7074 66.5639 53.162 76.0142 53.0047 76.0952C52.9372 76.1373 52.8602 76.1619 52.7807 76.1667Z" fill="#EF993D"/>
<path d="M55.3208 82.9387C55.2125 82.9372 55.1081 82.8988 55.0245 82.83C54.941 82.7611 54.8834 82.6659 54.8612 82.5599C54.839 82.454 54.8535 82.3436 54.9024 82.247C54.9513 82.1504 55.0316 82.0734 55.1302 82.0285C55.1873 81.9999 61.0252 79.4503 68.8599 76.9293C76.1037 74.6037 86.5833 71.8301 95.3902 71.8301C95.5165 71.8301 95.6378 71.8803 95.7271 71.9697C95.8165 72.059 95.8667 72.1802 95.8667 72.3066C95.8667 72.433 95.8165 72.5543 95.7271 72.6436C95.6378 72.733 95.5165 72.7832 95.3902 72.7832C78.7534 72.7832 55.7402 82.791 55.5114 82.9006C55.4512 82.9263 55.3863 82.9393 55.3208 82.9387Z" fill="#EF993D"/>
<path d="M57.2938 90.8402C57.1861 90.8395 57.0819 90.8025 56.998 90.7351C56.9141 90.6676 56.8555 90.5738 56.8317 90.4688C56.808 90.3638 56.8204 90.2539 56.8671 90.1569C56.9138 90.0599 56.992 89.9816 57.0888 89.9347C57.1555 89.9013 64.0562 86.5749 72.6581 83.5297C84.2434 79.4313 93.2409 77.7776 99.4028 78.6068C99.5279 78.6234 99.6412 78.6889 99.718 78.789C99.7949 78.889 99.8289 79.0155 99.8127 79.1406C99.796 79.2656 99.7305 79.379 99.6305 79.4558C99.5304 79.5326 99.404 79.5666 99.2789 79.5504C84.596 77.5679 57.6321 90.8402 57.2938 90.8402Z" fill="#EF993D"/>
<path d="M58.9903 99.3087C58.8848 99.3094 58.782 99.2751 58.6981 99.2111C58.6142 99.1472 58.5539 99.0572 58.5266 98.9552C58.4993 98.8533 58.5067 98.7452 58.5475 98.6479C58.5883 98.5505 58.6602 98.4695 58.752 98.4175C58.9903 98.2793 82.7994 84.8116 101.643 85.9363C101.769 85.9439 101.887 86.0014 101.971 86.0961C102.055 86.1909 102.098 86.3151 102.091 86.4415C102.083 86.5679 102.026 86.6861 101.931 86.7701C101.836 86.8541 101.712 86.897 101.585 86.8895C83.0377 85.7838 59.4764 99.1085 59.2381 99.242C59.1632 99.2864 59.0775 99.3095 58.9903 99.3087Z" fill="#EF993D"/>
<path d="M60.6821 106.08C60.5719 106.081 60.4649 106.044 60.3791 105.975C60.2933 105.906 60.2341 105.809 60.2117 105.701C60.1892 105.593 60.2048 105.481 60.2558 105.383C60.3068 105.286 60.3901 105.209 60.4915 105.165C60.7488 105.051 86.4546 93.8328 104.392 92.7128C104.518 92.705 104.642 92.7472 104.736 92.8303C104.831 92.9133 104.889 93.0304 104.898 93.156C104.901 93.2186 104.893 93.2814 104.872 93.3407C104.852 93.4 104.82 93.4547 104.778 93.5016C104.737 93.5486 104.686 93.5868 104.63 93.6142C104.574 93.6416 104.512 93.6576 104.45 93.6612C86.6786 94.7716 61.1301 105.928 60.8727 106.052C60.8118 106.074 60.7469 106.084 60.6821 106.08Z" fill="#EF993D"/>
<path d="M64.3517 115.392C64.2454 115.393 64.142 115.358 64.0578 115.293C63.9737 115.228 63.9138 115.137 63.8875 115.034C63.8612 114.931 63.8701 114.822 63.9127 114.725C63.9554 114.627 64.0294 114.547 64.1229 114.497C64.3707 114.358 89.2616 100.895 106.975 101.458C107.102 101.462 107.222 101.515 107.308 101.607C107.395 101.7 107.441 101.822 107.438 101.949C107.434 102.075 107.38 102.195 107.288 102.281C107.196 102.368 107.073 102.415 106.947 102.411C89.4998 101.868 64.8234 115.197 64.5804 115.335C64.5097 115.372 64.4313 115.392 64.3517 115.392Z" fill="#EF993D"/>
<path d="M109.797 46.739C109.698 46.7377 109.602 46.7058 109.522 46.6475C109.442 46.5893 109.382 46.5077 109.351 46.414C109.32 46.3203 109.318 46.2191 109.347 46.1245C109.375 46.0299 109.433 45.9466 109.511 45.886C128.03 31.9465 152.735 27.9053 152.978 27.8671C153.104 27.8469 153.234 27.8777 153.337 27.9528C153.441 28.0279 153.511 28.1411 153.531 28.2675C153.551 28.3939 153.52 28.5231 153.445 28.6268C153.37 28.7305 153.257 28.8 153.13 28.8203C152.883 28.8584 128.411 32.8663 110.083 46.658C109.998 46.7148 109.898 46.7432 109.797 46.739Z" fill="#EF993D"/>
<path d="M114.672 54.8597C114.575 54.8604 114.481 54.8318 114.401 54.7777C114.321 54.7236 114.26 54.6465 114.224 54.5566C114.189 54.4667 114.182 54.3683 114.204 54.2743C114.226 54.1804 114.276 54.0953 114.348 54.0304C129.755 39.6669 155.146 36.5072 155.399 36.4739C155.461 36.4664 155.525 36.4713 155.586 36.4883C155.646 36.5053 155.703 36.5341 155.753 36.573C155.802 36.612 155.844 36.6603 155.874 36.7152C155.905 36.7702 155.925 36.8307 155.933 36.8933C155.94 36.9558 155.935 37.0193 155.918 37.08C155.901 37.1407 155.872 37.1974 155.833 37.247C155.795 37.2965 155.746 37.338 155.691 37.3688C155.636 37.3997 155.576 37.4195 155.513 37.427C155.261 37.4556 130.174 40.5866 115.005 54.7358C114.914 54.8186 114.795 54.863 114.672 54.8597Z" fill="#EF993D"/>
<path d="M118.885 60.4067C118.785 60.4067 118.687 60.3753 118.606 60.3168C118.525 60.2583 118.464 60.1758 118.433 60.0809C118.401 59.986 118.4 59.8835 118.43 59.7881C118.46 59.6926 118.519 59.6089 118.599 59.5489C137.757 45.3521 156.066 43.2362 156.247 43.2123C156.31 43.2055 156.373 43.211 156.434 43.2286C156.494 43.2462 156.55 43.2755 156.6 43.3149C156.649 43.3542 156.69 43.4029 156.72 43.4581C156.75 43.5133 156.769 43.5739 156.776 43.6365C156.783 43.6991 156.778 43.7624 156.76 43.8229C156.742 43.8833 156.713 43.9397 156.674 43.9888C156.634 44.0379 156.586 44.0788 156.53 44.1091C156.475 44.1394 156.415 44.1586 156.352 44.1655C156.171 44.1655 138.104 46.2862 119.18 60.3209C119.094 60.3814 118.99 60.4116 118.885 60.4067Z" fill="#EF993D"/>
<path d="M120.591 67.66C120.492 67.6597 120.395 67.6285 120.314 67.5706C120.234 67.5127 120.173 67.4311 120.141 67.3372C120.109 67.2433 120.107 67.1417 120.136 67.0467C120.164 66.9516 120.222 66.8678 120.3 66.807C133.587 56.4656 158.092 50.194 158.339 50.1273C158.462 50.0963 158.592 50.1153 158.7 50.1801C158.809 50.2449 158.887 50.3502 158.918 50.4728C158.949 50.5954 158.93 50.7253 158.866 50.8339C158.801 50.9425 158.695 51.0209 158.573 51.0518C158.33 51.1138 134.011 57.3377 120.886 67.5552C120.802 67.6225 120.698 67.6594 120.591 67.66Z" fill="#EF993D"/>
<path d="M121.634 75.4329C121.54 75.4334 121.448 75.4061 121.37 75.3544C121.291 75.3026 121.23 75.2288 121.193 75.1422C121.156 75.0555 121.146 74.96 121.163 74.8675C121.181 74.7751 121.225 74.6899 121.291 74.6227C125.647 70.1812 133.768 65.9636 145.429 62.0844C154.088 59.225 161.575 57.5904 161.632 57.5761C161.695 57.5629 161.759 57.5622 161.822 57.574C161.885 57.5859 161.945 57.6099 161.999 57.6449C162.052 57.6798 162.098 57.725 162.134 57.7778C162.17 57.8306 162.196 57.89 162.209 57.9526C162.222 58.0151 162.223 58.0797 162.211 58.1425C162.199 58.2054 162.175 58.2653 162.14 58.3189C162.105 58.3724 162.06 58.4185 162.007 58.4546C161.954 58.4907 161.895 58.5161 161.832 58.5292C161.761 58.5292 154.312 60.1447 145.706 63.0089C134.354 66.788 126.167 71.039 121.959 75.309C121.87 75.3895 121.754 75.4337 121.634 75.4329Z" fill="#EF993D"/>
<path d="M124.356 82.6098C124.259 82.6097 124.164 82.5801 124.085 82.525C124.005 82.4699 123.945 82.3919 123.91 82.3014C123.876 82.2109 123.87 82.1121 123.894 82.0182C123.917 81.9244 123.969 81.8398 124.041 81.7758C138.214 69.3232 165.273 65.3296 165.545 65.2915C165.671 65.2738 165.8 65.3071 165.901 65.3839C166.003 65.4608 166.071 65.575 166.088 65.7014C166.106 65.8278 166.073 65.956 165.996 66.0579C165.919 66.1598 165.805 66.2269 165.678 66.2446C165.411 66.2828 138.629 70.2382 124.694 82.5002C124.6 82.579 124.478 82.6183 124.356 82.6098Z" fill="#EF993D"/>
<path d="M126.29 89.6868C126.188 89.688 126.088 89.6561 126.004 89.5958C125.921 89.5355 125.86 89.45 125.83 89.352C125.799 89.254 125.801 89.1487 125.835 89.0519C125.869 88.9551 125.934 88.8719 126.019 88.8147C140.864 78.6829 168.042 71.7537 168.319 71.687C168.44 71.6566 168.569 71.6756 168.677 71.7399C168.785 71.8041 168.864 71.9085 168.895 72.0301C168.911 72.0908 168.915 72.1541 168.906 72.2162C168.897 72.2783 168.876 72.338 168.844 72.3921C168.812 72.4461 168.77 72.4933 168.72 72.5309C168.67 72.5686 168.613 72.596 168.552 72.6115C168.28 72.6783 141.259 79.5693 126.557 89.601C126.479 89.6557 126.386 89.6856 126.29 89.6868Z" fill="#EF993D"/>
<path d="M129.655 98.1505C129.557 98.1507 129.461 98.1206 129.381 98.0643C129.3 98.008 129.239 97.9283 129.206 97.836C129.173 97.7437 129.168 97.6434 129.194 97.5487C129.22 97.4541 129.274 97.3696 129.35 97.307C142.98 85.9934 170.901 81.3279 171.183 81.2802C171.309 81.26 171.438 81.2908 171.542 81.3659C171.646 81.441 171.715 81.5542 171.735 81.6805C171.756 81.8069 171.725 81.9362 171.65 82.0399C171.575 82.1435 171.462 82.2131 171.335 82.2334C171.054 82.281 143.385 86.9037 129.96 98.0552C129.872 98.1212 129.765 98.1548 129.655 98.1505Z" fill="#EF993D"/>
<path d="M99.2646 70.8722C99.1278 70.8734 98.9924 70.8452 98.8675 70.7895C98.7426 70.7338 98.6312 70.6518 98.5407 70.5492C98.4503 70.4465 98.383 70.3257 98.3435 70.1947C98.3039 70.0638 98.293 69.9259 98.3115 69.7904C99.4314 61.584 91.9113 48.4356 91.9113 41.4587C91.9113 33.8337 98.2209 33.7241 98.2877 33.7241C98.5404 33.7241 98.7829 33.8245 98.9616 34.0033C99.1404 34.182 99.2408 34.4245 99.2408 34.6772C99.2408 34.93 99.1404 35.1725 98.9616 35.3512C98.7829 35.53 98.5404 35.6304 98.2877 35.6304C97.8111 35.6304 93.8127 35.8544 93.8127 41.4587C93.8127 48.0115 101.395 61.2504 100.194 70.0525C100.162 70.2774 100.051 70.4837 99.8806 70.6339C99.7103 70.7842 99.4918 70.8687 99.2646 70.8722Z" fill="#FFD0A7"/>
<path d="M104.335 65.7585H91.4823C89.6847 65.7585 88.2274 67.2158 88.2274 69.0135V81.8664C88.2274 83.664 89.6847 85.1213 91.4823 85.1213H104.335C106.133 85.1213 107.59 83.664 107.59 81.8664V69.0135C107.59 67.2158 106.133 65.7585 104.335 65.7585Z" fill="#FFD0A7"/>
<path d="M96.167 69.4615C96.194 69.4291 96.2095 69.3887 96.2111 69.3465C96.2127 69.3043 96.2003 69.2628 96.1758 69.2285C96.1512 69.1942 96.116 69.1689 96.0756 69.1568C96.0352 69.1446 95.9919 69.1462 95.9525 69.1613C93.4029 70.0477 91.6634 72.2256 91.4966 74.6465C91.4966 74.8133 91.3632 77.6298 93.5697 79.4121C95.4426 80.9276 98.2305 81.0801 100.57 79.76C100.606 79.7404 100.635 79.7096 100.652 79.6723C100.67 79.6349 100.674 79.5931 100.666 79.5529C100.657 79.5127 100.636 79.4764 100.605 79.4493C100.574 79.4222 100.535 79.4058 100.494 79.4026C99.3976 79.2878 98.3512 78.8839 97.4618 78.2323C96.5725 77.5807 95.872 76.7047 95.432 75.6938C94.9919 74.6829 94.8281 73.5733 94.9572 72.4783C95.0864 71.3834 95.5038 70.3423 96.167 69.4615Z" fill="white"/>
<path d="M99.2694 72.2494C99.2694 72.2494 99.1073 69.9571 99.3504 69.8237C99.5934 69.6902 101.071 71.6441 101.381 71.5202C101.69 71.3963 103.249 70.7006 103.244 71.0151C103.239 71.3296 102.367 73.0166 102.567 73.2263C102.767 73.436 103.639 74.8228 103.573 75.0373C103.506 75.2517 101.285 74.7704 101.009 75.0373C100.732 75.3041 99.8174 77.0341 99.6411 76.8244C99.4648 76.6147 99.2741 74.2843 99.1169 74.1604C98.9596 74.0365 96.8389 73.7172 96.796 73.4837C96.7531 73.2502 99.2694 72.2494 99.2694 72.2494Z" fill="white"/>
<path d="M107.357 143.634L110.216 141.58C110.315 141.509 110.432 141.466 110.553 141.455C110.674 141.444 110.797 141.466 110.907 141.519C111.017 141.571 111.11 141.653 111.178 141.754C111.246 141.855 111.286 141.973 111.293 142.094L111.469 145.616C111.475 145.756 111.524 145.891 111.609 146.002C111.695 146.113 111.812 146.194 111.946 146.236L115.339 147.189C115.456 147.222 115.562 147.287 115.646 147.375C115.73 147.463 115.788 147.573 115.816 147.691C115.843 147.81 115.838 147.934 115.801 148.05C115.764 148.166 115.697 148.27 115.606 148.352L112.966 150.687C112.859 150.781 112.784 150.907 112.752 151.047C112.721 151.186 112.734 151.332 112.789 151.464L114.152 154.709C114.204 154.822 114.224 154.948 114.209 155.072C114.195 155.195 114.146 155.313 114.07 155.411C113.993 155.509 113.891 155.585 113.774 155.629C113.658 155.673 113.532 155.685 113.409 155.662L109.935 155.057C109.795 155.031 109.651 155.051 109.524 155.112C109.396 155.174 109.291 155.275 109.225 155.4L107.533 158.493C107.475 158.6 107.389 158.69 107.284 158.753C107.179 158.815 107.059 158.848 106.937 158.848C106.815 158.848 106.695 158.815 106.59 158.753C106.485 158.69 106.4 158.6 106.342 158.493L104.664 155.386C104.597 155.26 104.491 155.159 104.363 155.097C104.234 155.036 104.089 155.017 103.949 155.043L100.48 155.648C100.357 155.67 100.231 155.659 100.114 155.615C99.9978 155.57 99.8957 155.495 99.819 155.397C99.7424 155.298 99.6941 155.181 99.6796 155.057C99.665 154.933 99.6847 154.808 99.7364 154.695L101.099 151.449C101.155 151.318 101.168 151.172 101.137 151.032C101.105 150.893 101.03 150.767 100.923 150.672L98.2829 148.337C98.1921 148.256 98.1248 148.152 98.088 148.036C98.0511 147.92 98.046 147.796 98.0733 147.677C98.1005 147.558 98.1591 147.449 98.2429 147.361C98.3267 147.272 98.4327 147.208 98.5498 147.174L101.943 146.221C102.077 146.181 102.195 146.099 102.281 145.988C102.366 145.877 102.415 145.742 102.419 145.602L102.601 142.08C102.606 141.954 102.646 141.832 102.717 141.727C102.788 141.622 102.886 141.539 103.001 141.487C103.117 141.436 103.244 141.417 103.369 141.433C103.495 141.449 103.613 141.5 103.711 141.58L106.57 143.634C106.685 143.716 106.822 143.761 106.963 143.761C107.105 143.761 107.242 143.716 107.357 143.634Z" fill="#FFD0A7"/>
<path d="M191.904 7.23682L194.763 5.18284C194.862 5.1117 194.979 5.06864 195.101 5.05817C195.223 5.0477 195.345 5.0702 195.455 5.12333C195.566 5.17645 195.659 5.25824 195.727 5.3601C195.795 5.46197 195.834 5.58016 195.84 5.70229L196.016 9.21933C196.021 9.35939 196.07 9.49442 196.155 9.60551C196.241 9.7166 196.359 9.79818 196.493 9.83885L199.886 10.792C200.003 10.8255 200.109 10.8899 200.193 10.9783C200.277 11.0667 200.335 11.1759 200.362 11.2947C200.39 11.4134 200.385 11.5372 200.348 11.6533C200.311 11.7694 200.244 11.8735 200.153 11.9548L197.508 14.29C197.402 14.3846 197.329 14.5097 197.297 14.648C197.266 14.7862 197.278 14.9308 197.332 15.062L198.699 18.3121C198.747 18.4244 198.763 18.5475 198.746 18.6682C198.73 18.789 198.681 18.903 198.604 18.9982C198.528 19.0934 198.428 19.1662 198.314 19.2091C198.2 19.2519 198.076 19.2631 197.956 19.2414L194.482 18.6362C194.341 18.6151 194.196 18.6398 194.07 18.7067C193.944 18.7736 193.843 18.8792 193.781 19.0079L192.089 22.1008C192.031 22.2083 191.946 22.2982 191.841 22.3608C191.736 22.4234 191.616 22.4565 191.494 22.4565C191.372 22.4565 191.252 22.4234 191.147 22.3608C191.042 22.2982 190.956 22.2083 190.898 22.1008L189.221 19.0079C189.153 18.8823 189.048 18.7814 188.919 18.7197C188.791 18.658 188.646 18.6388 188.506 18.6648L185.036 19.27C184.916 19.2917 184.793 19.2805 184.679 19.2377C184.564 19.1948 184.464 19.122 184.388 19.0268C184.312 18.9316 184.263 18.8176 184.246 18.6968C184.229 18.5761 184.245 18.453 184.293 18.3407L185.656 15.0906C185.712 14.9598 185.725 14.8146 185.693 14.6758C185.662 14.5371 185.587 14.412 185.48 14.3185L182.839 11.9834C182.749 11.9021 182.681 11.798 182.644 11.6819C182.608 11.5658 182.603 11.442 182.63 11.3232C182.657 11.2045 182.716 11.0953 182.799 11.0069C182.883 10.9185 182.989 10.8541 183.106 10.8206L186.499 9.86745C186.634 9.82742 186.752 9.746 186.838 9.63478C186.923 9.52355 186.972 9.38818 186.976 9.24792L187.157 5.73089C187.163 5.60876 187.202 5.49056 187.27 5.38869C187.338 5.28683 187.431 5.20504 187.542 5.15192C187.652 5.09879 187.774 5.07629 187.896 5.08676C188.018 5.09723 188.135 5.1403 188.234 5.21143L191.093 7.26542C191.213 7.34951 191.357 7.39221 191.503 7.38705C191.65 7.38189 191.79 7.32915 191.904 7.23682Z" fill="#FFD0A7"/>
</g>
<defs>
<clipPath id="clip0_810_3360">
<rect width="216" height="159" fill="white"/>
</clipPath>
</defs>
</svg>
